<?xml version="1.0" encoding="UTF-8"?>
<svg id="Layer_2" xmlns="http://www.w3.org/2000/svg" viewBox="0 0 538.08 102.94">
  <defs>
    <style>
      .cls-1, .cls-2, .cls-3 {
        font-family: ProductSans-Regular, 'Product Sans';
      }

      .cls-4 {
        font-size: 79px;
      }

      .cls-2 {
        letter-spacing: -.01em;
      }

      .cls-5 {
        letter-spacing: 0em;
      }

      .cls-5, .cls-6 {
        font-family: ProductSans-Bold, 'Product Sans';
        font-weight: 700;
      }

      .cls-3 {
        letter-spacing: -.03em;
      }
    </style>
  </defs>
  <g id="Layer_1-2" data-name="Layer_1">
    <g>
      <text class="cls-4" transform="translate(126.1 80.42)"><tspan class="cls-6" x="0" y="0">D</tspan><tspan class="cls-5" x="56.8" y="0">at</tspan><tspan class="cls-6" x="129.16" y="0">a</tspan><tspan class="cls-1" x="171.43" y="0">neu</tspan><tspan class="cls-3" x="299.41" y="0">r</tspan><tspan class="cls-2" x="325.71" y="0">o</tspan><tspan class="cls-1" x="369.16" y="0">n</tspan></text>
      <g>
        <path d="M31.43,51.43c0,8.67-7.04,15.71-15.71,15.71-.28,0-.54-.01-.81-.02-8.3-.42-14.91-7.29-14.91-15.69s7.04-15.72,15.72-15.72,15.71,7.04,15.71,15.72Z"/>
        <path d="M58.5,86.52c0,7.26-5.89,13.15-13.15,13.15-6.08,0-11.2-4.13-12.7-9.73-.08-.3-.15-.6-.21-.91,0-.02-.01-.04-.01-.06-.15-.79-.23-1.61-.23-2.45,0-7.26,5.89-13.15,13.15-13.15s13.15,5.89,13.15,13.15Z"/>
        <circle cx="79.58" cy="45.94" r="10.53"/>
        <circle cx="39.27" cy="8.76" r="8.76"/>
        <g>
          <line x1="53.19" y1="80.42" x2="76.57" y2="51.96"/>
          <path d="M44.64,73.4c7.92-.55,13.79-3.14,19.09-8.15,2.14-2.22,3.27-5.26,4.43-8.28.57-1.52.95-3.19,1.13-5.03.14-1.87.16-3.84-.38-6.27l12.86,10.56c-3.66.65-6.56,2.18-9.33,4.25-5.22,3.72-8.72,8.74-11.28,14.57-1.23,2.96-2.36,6-2.8,9.61l-13.72-11.27h0Z"/>
        </g>
        <g>
          <line x1="44.33" y1="13.61" x2="73.63" y2="41.55"/>
          <path d="M47.95,9.81c.9,3.71,3.08,6.31,5.15,9.27,1.97,2.83,4.5,5.06,7.16,7.15,5.83,4.03,12.14,7.19,19.16,9.24,0,0-10.33,10.84-10.33,10.84-1.17-3.66-2.93-6.7-4.84-9.59-1.86-2.89-4.14-5.39-6.62-7.72-3.74-3.44-7.12-7.28-11.57-9.87-1.51-.86-3.16-1.57-5.33-1.75,0,0,7.23-7.58,7.23-7.58h0Z"/>
        </g>
        <g>
          <line x1="22.25" y1="60.26" x2="36.22" y2="80.42"/>
          <path d="M31.2,54.06c-3.73,7.47-3.37,16.28,4.83,19.04,3.07,1,7.18.86,10.53.16,0,0-13.9,9.63-13.9,9.63.98-7.2-4.93-12.29-11.23-14.6-2.73-.96-5.41-1.49-8.58-1.51,0,0,18.36-12.72,18.36-12.72h0Z"/>
        </g>
      </g>
    </g>
  </g>
</svg>